REM DIRINDEX 1\2,1\3,1\4,1\5,1\6
REM DIRNAME cjc129,folder01,folder02,folder03,folder04,folder05
TITLE ""
FILE "DISC5Track09.mp3" MP3
  TRACK 01 AUDIO
    TITLE "0:"
    INDEX 01 00:00:00
  TRACK 02 AUDIO
    TITLE "2:cjc129_4108"
    INDEX 01 00:03:14
  TRACK 03 AUDIO
    TITLE "0:"
    INDEX 01 00:13:10
  TRACK 04 AUDIO
    TITLE "3:cjc129_4109"
    INDEX 01 00:14:25
  TRACK 05 AUDIO
    TITLE "0:"
    INDEX 01 00:16:16
  TRACK 06 AUDIO
    TITLE "5:cjc129_4110"
    INDEX 01 00:16:48
  TRACK 07 AUDIO
    TITLE "0:"
    INDEX 01 00:18:62
  TRACK 08 AUDIO
    TITLE "4:cjc129_4111"
    INDEX 01 00:19:56
  TRACK 09 AUDIO
    TITLE "0:"
    INDEX 01 00:21:47
  TRACK 10 AUDIO
    TITLE "6:cjc129_4112"
    INDEX 01 00:22:03
  TRACK 11 AUDIO
    TITLE "0:"
    INDEX 01 00:25:43
  TRACK 12 AUDIO
    TITLE "3:cjc129_4113"
    INDEX 01 00:27:18
  TRACK 13 AUDIO
    TITLE "0:"
    INDEX 01 00:28:55
  TRACK 14 AUDIO
    TITLE "5:cjc129_4114"
    INDEX 01 00:29:11
  TRACK 15 AUDIO
    TITLE "0:"
    INDEX 01 00:35:15
  TRACK 16 AUDIO
    TITLE "4:cjc129_4115"
    INDEX 01 00:36:05
  TRACK 17 AUDIO
    TITLE "0:"
    INDEX 01 00:37:46
  TRACK 18 AUDIO
    TITLE "6:cjc129_4116"
    INDEX 01 00:38:00
  TRACK 19 AUDIO
    TITLE "0:"
    INDEX 01 00:42:55
  TRACK 20 AUDIO
    TITLE "3:cjc129_4117"
    INDEX 01 00:44:34
  TRACK 21 AUDIO
    TITLE "0:"
    INDEX 01 00:46:35
  TRACK 22 AUDIO
    TITLE "5:cjc129_4118"
    INDEX 01 00:46:66
  TRACK 23 AUDIO
    TITLE "0:"
    INDEX 01 00:51:56
  TRACK 24 AUDIO
    TITLE "4:cjc129_4119"
    INDEX 01 00:52:47
  TRACK 25 AUDIO
    TITLE "0:"
    INDEX 01 00:54:46
  TRACK 26 AUDIO
    TITLE "6:cjc129_4120"
    INDEX 01 00:55:04
  TRACK 27 AUDIO
    TITLE "0:"
    INDEX 01 00:59:10
  TRACK 28 AUDIO
    TITLE "3:cjc129_4121"
    INDEX 01 01:00:64
  TRACK 29 AUDIO
    TITLE "0:"
    INDEX 01 01:03:02
  TRACK 30 AUDIO
    TITLE "5:cjc129_4122"
    INDEX 01 01:03:33
  TRACK 31 AUDIO
    TITLE "0:"
    INDEX 01 01:10:55
  TRACK 32 AUDIO
    TITLE "4:cjc129_4123"
    INDEX 01 01:11:49
  TRACK 33 AUDIO
    TITLE "0:"
    INDEX 01 01:13:61
  TRACK 34 AUDIO
    TITLE "6:cjc129_4124"
    INDEX 01 01:14:16
  TRACK 35 AUDIO
    TITLE "0:"
    INDEX 01 01:17:49
  TRACK 36 AUDIO
    TITLE "3:cjc129_4125"
    INDEX 01 01:19:25
  TRACK 37 AUDIO
    TITLE "0:"
    INDEX 01 01:20:67
  TRACK 38 AUDIO
    TITLE "5:cjc129_4126"
    INDEX 01 01:21:23
  TRACK 39 AUDIO
    TITLE "0:"
    INDEX 01 01:28:41
  TRACK 40 AUDIO
    TITLE "4:cjc129_4127"
    INDEX 01 01:29:29
  TRACK 41 AUDIO
    TITLE "0:"
    INDEX 01 01:30:73
  TRACK 42 AUDIO
    TITLE "6:cjc129_4128"
    INDEX 01 01:31:30
  TRACK 43 AUDIO
    TITLE "0:"
    INDEX 01 01:36:47
  TRACK 44 AUDIO
    TITLE "3:cjc129_4129"
    INDEX 01 01:38:22
  TRACK 45 AUDIO
    TITLE "0:"
    INDEX 01 01:39:41
  TRACK 46 AUDIO
    TITLE "5:cjc129_4130"
    INDEX 01 01:40:01
  TRACK 47 AUDIO
    TITLE "0:"
    INDEX 01 01:43:56
  TRACK 48 AUDIO
    TITLE "4:cjc129_4131"
    INDEX 01 01:44:46
  TRACK 49 AUDIO
    TITLE "0:"
    INDEX 01 01:45:67
  TRACK 50 AUDIO
    TITLE "6:cjc129_4132"
    INDEX 01 01:46:25
  TRACK 51 AUDIO
    TITLE "0:"
    INDEX 01 01:50:58
  TRACK 52 AUDIO
    TITLE "3:cjc129_4133"
    INDEX 01 01:52:34
  TRACK 53 AUDIO
    TITLE "0:"
    INDEX 01 01:55:67
  TRACK 54 AUDIO
    TITLE "5:cjc129_4134"
    INDEX 01 01:56:22
  TRACK 55 AUDIO
    TITLE "0:"
    INDEX 01 01:59:73
  TRACK 56 AUDIO
    TITLE "4:cjc129_4135"
    INDEX 01 02:00:63
  TRACK 57 AUDIO
    TITLE "0:"
    INDEX 01 02:04:19
  TRACK 58 AUDIO
    TITLE "6:cjc129_4136"
    INDEX 01 02:04:49
  TRACK 59 AUDIO
    TITLE "0:"
    INDEX 01 02:07:47
